<svg width="187" height="127" viewBox="0 0 187 127" fill="none" xmlns="http://www.w3.org/2000/svg">
<path d="M51.6651 125.823H36.804V100.183H14.8611V125.823H0V67.6217H14.8611V88.9234H36.804V67.6217H51.6651V125.823Z" fill="#1D1B20"/>
<path d="M79.9566 75.6709H65.2104V65H79.9566V75.6709ZM79.5682 125.823H65.5988V81.9269H79.5682V125.823Z" fill="#1D1B20"/>
<path d="M136.46 81.9269L119.701 125.823H103.913L87.2722 81.9269H101.983L112.068 112.138L122.023 81.9269H136.46Z" fill="#1D1B20"/>
<path d="M187 106.475H155.11C155.316 109.913 156.612 112.547 158.998 114.372C161.383 116.197 164.899 117.11 169.543 117.11C172.484 117.11 175.337 116.577 178.095 115.509C180.857 114.44 183.037 113.295 184.634 112.07H186.184V123.366C183.037 124.642 180.069 125.567 177.283 126.139C174.497 126.712 171.414 127 168.033 127C159.311 127 152.629 125.019 147.985 121.06C143.34 117.098 141.018 111.458 141.018 104.133C141.018 96.8085 143.217 91.1489 147.616 86.9141C152.015 82.6794 158.047 80.562 165.707 80.562C172.777 80.562 178.091 82.3672 181.65 85.9775C185.209 89.5879 186.992 94.7792 186.992 101.556V106.479L187 106.475ZM173.146 98.2254C173.066 95.2795 172.345 93.0661 170.978 91.5812C169.611 90.0962 167.482 89.3517 164.593 89.3517C161.911 89.3517 159.703 90.0562 157.975 91.4611C156.247 92.87 155.281 95.1234 155.074 98.2214H173.149L173.146 98.2254Z" fill="#1D1B20"/>
<path d="M69.6524 0.236157C70.3154 -0.0834461 71.0925 -0.0795091 71.7552 0.253216L99.3074 14.089C100.123 14.4986 100.633 15.338 100.62 16.2504L100.235 44.2551C100.223 45.1259 99.7369 45.921 98.967 46.3281L77.1598 57.861C76.6991 58.1046 76.1708 58.1904 75.6566 58.1053L66.8458 56.646L60.8113 62.1311C60.1817 62.7034 59.2947 62.8963 58.4843 62.6375C57.6739 62.3785 57.0628 61.707 56.8816 60.8757L54.7791 51.2329L42.5231 42.545C41.8493 42.0673 41.4708 41.2745 41.5233 40.4502L43.0558 16.3958L43.0702 16.2458C43.1651 15.5005 43.6074 14.8402 44.2678 14.4697L69.5213 0.304392L69.6524 0.236157ZM47.7276 17.9908L46.3621 39.4267L58.2881 47.8809L58.3773 47.9472C58.8141 48.2885 59.1194 48.7726 59.238 49.3165L60.6581 55.8322L64.4948 52.3448C65.0339 51.8549 65.7677 51.6388 66.4864 51.7578L75.6423 53.2737L95.4909 42.7768L95.836 17.6764L70.748 5.07852L47.7276 17.9908Z" fill="#FFCA27"/>
</svg>
