<svg width="187" height="62" viewBox="0 0 187 62" fill="none" xmlns="http://www.w3.org/2000/svg">
<path d="M51.6651 60.8232H36.804V35.1827H14.8611V60.8232H0V2.62169H14.8611V23.9234H36.804V2.62169H51.6651V60.8232Z" fill="#1D1B20"/>
<path d="M79.9566 10.6709H65.2104V0H79.9566V10.6709ZM79.5682 60.8232H65.5988V16.9269H79.5682V60.8232Z" fill="#1D1B20"/>
<path d="M136.46 16.9269L119.701 60.8232H103.913L87.2722 16.9269H101.983L112.068 47.1384L122.023 16.9269H136.46Z" fill="#1D1B20"/>
<path d="M187 41.4748H155.11C155.316 44.913 156.612 47.5467 158.998 49.3718C161.383 51.197 164.899 52.1096 169.543 52.1096C172.484 52.1096 175.337 51.5773 178.095 50.5086C180.857 49.4399 183.037 48.2952 184.634 47.0704H186.184V58.3657C183.037 59.6425 180.069 60.5671 177.283 61.1394C174.497 61.7118 171.414 62 168.033 62C159.311 62 152.629 60.0187 147.985 56.0602C143.34 52.0976 141.018 46.458 141.018 39.1332C141.018 31.8085 143.217 26.1489 147.616 21.9141C152.015 17.6794 158.047 15.562 165.707 15.562C172.777 15.562 178.091 17.3672 181.65 20.9775C185.209 24.5879 186.992 29.7792 186.992 36.5556V41.4788L187 41.4748ZM173.146 33.2254C173.066 30.2795 172.345 28.0661 170.978 26.5812C169.611 25.0962 167.482 24.3517 164.593 24.3517C161.911 24.3517 159.703 25.0562 157.975 26.4611C156.247 27.87 155.281 30.1234 155.074 33.2214H173.149L173.146 33.2254Z" fill="#1D1B20"/>
</svg>
