<svg width="60" height="63" viewBox="0 0 60 63" fill="none" xmlns="http://www.w3.org/2000/svg">
<path d="M28.1339 0.236157C28.797 -0.0834461 29.5741 -0.0795091 30.2368 0.253216L57.789 14.089C58.6045 14.4986 59.1143 15.338 59.1018 16.2504L58.7168 44.2551C58.7048 45.1259 58.2185 45.921 57.4486 46.3281L35.6413 57.861C35.1806 58.1046 34.6524 58.1904 34.1382 58.1053L25.3274 56.646L19.2928 62.1311C18.6633 62.7034 17.7763 62.8963 16.9659 62.6375C16.1554 62.3785 15.5443 61.707 15.3631 60.8757L13.2606 51.2329L1.0047 42.545C0.33085 42.0673 -0.0476655 41.2745 0.00482564 40.4502L1.5374 16.3958L1.55174 16.2458C1.6467 15.5005 2.08898 14.8402 2.74935 14.4697L28.0029 0.304392L28.1339 0.236157ZM6.20917 17.9908L4.84369 39.4267L16.7697 47.8809L16.8589 47.9472C17.2957 48.2885 17.601 48.7726 17.7196 49.3165L19.1397 55.8322L22.9764 52.3448C23.5154 51.8549 24.2493 51.6388 24.968 51.7578L34.1239 53.2737L53.9725 42.7768L54.3176 17.6764L29.2296 5.07852L6.20917 17.9908Z" fill="#FFCA27"/>
</svg>
